# xmcd CD database file
#
# Track frame offsets:
#	150
#	26743
#	49226
#	87174
#	110164
#	135283
#	160306
#	177882
#	195037
#	227743
#
# Disc length: 3362 seconds
#
# Revision: 2
# Processed by: cddbd v1.5.2PL0 Copyright (c) Steve Scherf et al.
# Submitted via: CDex 1.60beta1-cs1
#
DISCID=780d200a
DTITLE=Gerry Mulligan - One Man One Sax CD05 - Soft Shoe
DYEAR=1900
DGENRE=Jazz
TTITLE0=Bark For Barksdale and Utter Chaos
TTITLE1=Blues Going Up
TTITLE2=A Bark For Barksdale
TTITLE3=Little Girl Blue
TTITLE4=Piano Blues
TTITLE5=Yardbird Suite
TTITLE6=Blues For Tiny
TTITLE7=Soft Shoe
TTITLE8=Western Union
TTITLE9=I Know, I Don't Know Why
EXTD=
EXTT0=
EXTT1=
EXTT2=
EXTT3=
EXTT4=
EXTT5=
EXTT6=
EXTT7=
EXTT8=
EXTT9=
PLAYORDER=
